<svg xmlns="http://www.w3.org/2000/svg" viewBox="0 0 14.37 11.14"><defs><style>.cls-1{fill:#00d1b1;}</style></defs><g id="Import"><path class="cls-1" d="M4.17,8.14v3.74a1.67,1.67,0,0,1-3.3.39,2,2,0,0,1-.06-.48c0-2.53,0-5.06,0-7.58A1.67,1.67,0,0,1,2.4,2.43a1.65,1.65,0,0,1,1.3.51L7.36,6.59a.81.81,0,0,0,1.28,0C9.85,5.38,11.07,4.17,12.28,3a1.68,1.68,0,0,1,2.61.19,1.65,1.65,0,0,1-.17,2.1L9.15,10.82a1.67,1.67,0,0,1-2.33,0Z" transform="translate(-0.81 -2.43)"/><path class="cls-1" d="M15.18,11.89a1.67,1.67,0,1,1-1.68-1.68A1.68,1.68,0,0,1,15.18,11.89Z" transform="translate(-0.81 -2.43)"/></g></svg>