<?xml version="1.0" encoding="utf-8"?>
<!-- Generator: Adobe Illustrator 25.2.0, SVG Export Plug-In . SVG Version: 6.00 Build 0)  -->
<svg version="1.1" id="Layer_1" xmlns="http://www.w3.org/2000/svg" xmlns:xlink="http://www.w3.org/1999/xlink" x="0px" y="0px"
	 viewBox="0 0 458 70.8" style="enable-background:new 0 0 458 70.8;" xml:space="preserve">
<style type="text/css">
	.st0{enable-background:new    ;}
	.st1{fill:#FFFFFF;}
</style>
<g class="st0">
	<path class="st1" d="M64.5,31.2l-6.2,1l-0.8-5.3c-0.2-1.2-0.4-2-0.7-2.3c-0.7-0.8-2.5-1.2-5.5-1.3c-0.7,0-1.5,0-2.4,0
		c-3.5,0-5.7,0.2-6.8,0.6c-1.2,0.2-2,1.4-2.5,3.5c-0.5,2.1-0.8,4.7-0.8,7.7l0,6.6c0,0.9,0,2.2,0,3.8c0,2.1,0,3.6,0,4.4
		c0,0.9,0.1,1.8,0.3,2.9c0.2,1.1,0.5,1.8,0.8,2c0.3,0.3,0.8,0.6,1.7,0.9c0.8,0.4,1.7,0.5,2.6,0.6c0.9,0,2.3,0,4,0
		c1.4,0,2.6-0.1,3.6-0.2c1-0.1,1.9-0.2,2.5-0.4c0.7-0.1,1.3-0.4,1.7-0.7c0.4-0.3,0.8-0.7,1-0.9c0.2-0.3,0.4-0.7,0.6-1.3
		c0.1-0.6,0.2-1.1,0.2-1.5c0-0.4,0.1-1.1,0.1-2c0.1-0.9,0.1-1.6,0.2-2.2l6.2,1.1c-0.2,2-0.3,3.6-0.5,4.8c-0.2,1.2-0.5,2.4-1,3.5
		c-0.4,1.1-1,2-1.7,2.5c-0.7,0.6-1.6,1.1-2.8,1.5c-1.2,0.5-2.5,0.8-4.1,0.9c-1.6,0.1-3.5,0.2-5.8,0.2c-1.7,0-3.2-0.1-4.5-0.2
		c-1.3-0.1-2.5-0.3-3.6-0.6c-1.1-0.3-2-0.6-2.9-0.9c-0.8-0.3-1.5-0.8-2.1-1.5c-0.6-0.7-1.1-1.4-1.6-1.9c-0.4-0.5-0.8-1.4-1-2.6
		c-0.3-1.2-0.5-2.2-0.6-3.1c-0.2-0.8-0.3-2.1-0.3-3.8s-0.1-3.2-0.1-4.4c0-1.2,0-2.9,0-5.2c0-2,0-3.8,0.1-5.3s0.2-2.9,0.5-4.3
		c0.2-1.4,0.5-2.5,0.9-3.4c0.4-0.9,0.9-1.7,1.5-2.5c0.6-0.8,1.3-1.4,2.1-1.9c0.8-0.5,1.8-0.9,3-1.2c1.2-0.3,2.5-0.6,3.9-0.7
		c1.4-0.1,3.1-0.2,4.9-0.2c2.4,0,4.4,0.1,6.1,0.4c1.6,0.2,3.1,0.6,4.4,1.2c1.3,0.6,2.3,1.4,3,2.4c0.7,1,1.3,2.3,1.7,3.8
		C64.1,27.1,64.4,29,64.5,31.2z"/>
	<path class="st1" d="M90.2,61.5c-2.8,0-5.2-0.1-7-0.3c-1.9-0.2-3.5-0.7-4.9-1.5c-1.4-0.8-2.4-1.6-3.1-2.5c-0.7-0.9-1.3-2.3-1.7-4.2
		c-0.4-1.9-0.7-3.8-0.7-5.6c-0.1-1.9-0.1-4.4-0.1-7.7c0-2.5,0-4.5,0.1-6.2c0.1-1.7,0.2-3.3,0.4-4.9c0.2-1.6,0.5-2.9,0.9-3.9
		c0.3-1,0.8-1.9,1.5-2.8c0.6-0.9,1.4-1.5,2.2-2c0.8-0.5,1.8-0.9,3.1-1.2c1.3-0.3,2.6-0.6,4.1-0.7c1.5-0.1,3.3-0.2,5.3-0.2
		s3.8,0.1,5.3,0.2s2.9,0.3,4.1,0.7c1.3,0.3,2.3,0.7,3.1,1.2c0.8,0.5,1.5,1.1,2.2,2c0.6,0.9,1.1,1.8,1.5,2.8c0.3,1,0.6,2.3,0.9,3.9
		c0.2,1.6,0.4,3.2,0.4,4.9c0.1,1.7,0.1,3.7,0.1,6.2c0,3.3,0,5.9-0.1,7.7c-0.1,1.9-0.3,3.7-0.7,5.6c-0.4,1.9-1,3.3-1.7,4.2
		c-0.7,0.9-1.8,1.7-3.1,2.5c-1.4,0.8-3,1.3-4.9,1.5C95.4,61.4,93,61.5,90.2,61.5z M90.3,56.3c3.6-0.1,6.1-0.3,7.5-0.8
		c1.4-0.5,2.1-1.4,2.1-2.7c0.3-3.6,0.4-7.8,0.4-12.6c0-1.6-0.1-3.8-0.2-6.8c-0.1-2.9-0.2-5.1-0.2-6.5c0-0.4-0.1-0.8-0.2-1.2
		c-0.1-0.4-0.4-0.7-0.7-0.9c-0.3-0.2-0.6-0.5-1-0.6c-0.3-0.2-0.8-0.3-1.3-0.4c-0.6-0.1-1.1-0.2-1.4-0.3c-0.4-0.1-1-0.1-1.7-0.2
		c-0.7,0-1.3,0-1.7,0c-0.4,0-1,0-1.7,0s-1.3,0-1.7,0c-0.4,0-1,0-1.7,0c-0.7,0-1.3,0.1-1.7,0.2c-0.4,0.1-0.9,0.2-1.4,0.3
		c-0.6,0.1-1,0.2-1.3,0.4c-0.3,0.2-0.6,0.4-1,0.6c-0.3,0.2-0.5,0.5-0.7,0.9c-0.1,0.4-0.2,0.8-0.2,1.2c0,1.4-0.1,3.6-0.2,6.5
		s-0.2,5.2-0.2,6.8c0,4.8,0.1,9,0.4,12.6c0,1.3,0.7,2.3,2.2,2.8C84.3,56,86.8,56.3,90.3,56.3z"/>
	<path class="st1" d="M151.4,61h-7.5V35.6c0-1.6,0-2.9,0-3.9c0-1-0.1-2-0.2-3c-0.1-1-0.2-1.7-0.3-2.2c-0.1-0.5-0.3-1-0.6-1.5
		c-0.3-0.5-0.5-0.8-0.8-1c-0.3-0.2-0.7-0.3-1.2-0.5c-0.5-0.2-1.1-0.3-1.6-0.3s-1.2,0-2.1,0c-1.9,0-3.6,0.1-4.9,0.3
		c-1.4,0.2-2.5,0.5-3.3,0.9c-0.9,0.4-1.5,0.9-2,1.6c-0.5,0.7-0.8,1.4-1,2.2c-0.2,0.8-0.3,1.8-0.3,3c0,0.7,0,1.8,0.1,3.5
		c0.1,1.6,0.1,3,0.1,4V61h-7.5V19.1h6.8l0.7,4.7c0.7-2.1,2.1-3.6,4.4-4.5c2.3-0.9,4.9-1.4,8.1-1.4c1.5,0,2.8,0.1,3.9,0.3
		c1.1,0.2,2.2,0.5,3,0.9c0.9,0.4,1.7,0.9,2.3,1.4c0.6,0.5,1.2,1.2,1.6,2.1c0.4,0.9,0.8,1.8,1.1,2.7c0.3,0.9,0.5,2.1,0.6,3.4
		c0.2,1.4,0.3,2.7,0.3,4.1c0.1,1.4,0.1,3,0.1,4.9V61z"/>
	<path class="st1" d="M179.4,55.7l-0.2,5.3c-2.1,0.4-4.1,0.5-5.8,0.5c-1.9,0-3.4-0.2-4.6-0.6c-1.2-0.4-2.1-1.1-2.7-1.9s-1-1.9-1.3-3
		c-0.2-1.1-0.3-2.5-0.3-4.1V23.4h-5.7v-4.3h5.7V7.2l7.5-0.6v12.5h7.7v4.3H172v25.9c0,2.7,0.1,4.5,0.4,5.3c0.3,0.8,1,1.2,2.2,1.2
		C175.8,55.9,177.4,55.8,179.4,55.7z"/>
	<path class="st1" d="M207.8,18.2l-0.3,6.4c-1-0.1-1.9-0.2-2.7-0.2c-1.8,0-3.3,0.2-4.4,0.5c-1.1,0.4-2,1-2.5,1.8s-1,1.8-1.1,3
		c-0.2,1.1-0.3,2.6-0.3,4.4c0,1,0,2.6,0.1,4.6c0.1,2,0.1,3.4,0.1,4.3v18h-7.5V19.1h6.8l0.8,4.7c0.8-1.8,2-3.2,3.6-4.3
		c1.6-1,3.5-1.5,5.7-1.5C206.6,18,207.2,18.1,207.8,18.2z"/>
	<path class="st1" d="M246.6,61h-5.9l-1.2-6c-0.8,2.6-2.1,4.4-4.1,5.2c-2,0.9-4.9,1.3-8.7,1.3c-2.5,0-4.6-0.2-6.2-0.7
		c-1.6-0.5-2.9-1.3-3.9-2.5c-1-1.2-1.6-2.6-2-4.3c-0.4-1.7-0.6-3.9-0.6-6.5c0-1.2,0.2-2.3,0.6-3.2c0.4-0.9,1-1.7,1.7-2.4
		c0.7-0.7,1.7-1.2,2.9-1.7c1.2-0.5,2.5-0.9,3.7-1.1c1.3-0.3,2.9-0.5,4.7-0.7c1.8-0.2,3.6-0.3,5.4-0.3s3.8-0.1,6.1-0.1V26.6
		c0-1.3-0.6-2.2-1.8-2.7c-1.2-0.5-3.4-0.7-6.5-0.7c-2.2,0-3.8,0.1-4.9,0.2c-1.1,0.1-1.9,0.4-2.5,0.9c-0.6,0.5-0.9,1-1,1.5
		s-0.1,1.4-0.2,2.7c0,0.5,0,0.9,0,1.1l-5.8-0.2c-0.1-0.4-0.1-1-0.1-1.8c0-1.7,0.2-3.1,0.7-4.3c0.5-1.2,1.1-2.1,1.9-2.8
		c0.8-0.7,1.9-1.2,3.2-1.6c1.4-0.4,2.7-0.6,4.1-0.7c1.3-0.1,3-0.2,5-0.2c3,0,5.5,0.2,7.4,0.7c1.9,0.5,3.5,1.3,4.7,2.5
		c1.2,1.2,2.1,2.8,2.5,4.7c0.5,1.9,0.7,4.4,0.7,7.4V61z M239.1,49v-6.5c-5,0-8.8,0.2-11.5,0.6c-2.7,0.4-4.5,0.9-5.4,1.6
		c-0.9,0.7-1.4,1.6-1.4,2.8c0,0.1,0,0.1,0,0.2c0,3.9,0.3,6.3,1,7.2c0.6,0.9,2.6,1.4,5.8,1.4c2.8,0,5-0.3,6.7-1
		c1.7-0.7,2.9-1.5,3.6-2.5C238.6,51.7,239,50.5,239.1,49z"/>
	<path class="st1" d="M289.8,31.2l-6.2,1l-0.8-5.3c-0.2-1.2-0.4-2-0.7-2.3c-0.7-0.8-2.5-1.2-5.5-1.3c-0.7,0-1.5,0-2.4,0
		c-3.5,0-5.7,0.2-6.8,0.6c-1.2,0.2-2,1.4-2.5,3.5c-0.5,2.1-0.8,4.7-0.8,7.7l0,6.6c0,0.9,0,2.2,0,3.8c0,2.1,0,3.6,0,4.4
		c0,0.9,0.1,1.8,0.3,2.9c0.2,1.1,0.5,1.8,0.8,2c0.3,0.3,0.8,0.6,1.7,0.9c0.8,0.4,1.7,0.5,2.6,0.6s2.3,0,4,0c1.4,0,2.6-0.1,3.6-0.2
		c1-0.1,1.9-0.2,2.6-0.4c0.7-0.1,1.3-0.4,1.7-0.7c0.4-0.3,0.8-0.7,1-0.9c0.2-0.3,0.4-0.7,0.6-1.3c0.1-0.6,0.2-1.1,0.2-1.5
		c0-0.4,0.1-1.1,0.1-2c0-0.9,0.1-1.6,0.2-2.2l6.2,1.1c-0.2,2-0.3,3.6-0.5,4.8c-0.2,1.2-0.5,2.4-1,3.5c-0.4,1.1-1,2-1.7,2.5
		s-1.6,1.1-2.8,1.5c-1.2,0.5-2.5,0.8-4.1,0.9c-1.6,0.1-3.5,0.2-5.8,0.2c-1.7,0-3.2-0.1-4.5-0.2c-1.3-0.1-2.5-0.3-3.6-0.6
		c-1.1-0.3-2-0.6-2.9-0.9c-0.8-0.3-1.5-0.8-2.1-1.5c-0.6-0.7-1.1-1.4-1.6-1.9c-0.4-0.5-0.8-1.4-1-2.6s-0.5-2.2-0.6-3.1
		c-0.2-0.8-0.3-2.1-0.3-3.8s-0.1-3.2-0.1-4.4c0-1.2,0-2.9,0-5.2c0-2,0-3.8,0.1-5.3s0.2-2.9,0.5-4.3c0.2-1.4,0.5-2.5,0.9-3.4
		c0.4-0.9,0.9-1.7,1.5-2.5c0.6-0.8,1.3-1.4,2.1-1.9c0.8-0.5,1.8-0.9,3-1.2c1.2-0.3,2.5-0.6,3.9-0.7c1.4-0.1,3-0.2,4.9-0.2
		c2.4,0,4.4,0.1,6.1,0.4c1.6,0.2,3.1,0.6,4.4,1.2c1.3,0.6,2.3,1.4,3,2.4c0.7,1,1.3,2.3,1.7,3.8C289.4,27.1,289.7,29,289.8,31.2z"/>
	<path class="st1" d="M316.3,55.7l-0.2,5.3c-2.1,0.4-4.1,0.5-5.8,0.5c-1.9,0-3.4-0.2-4.6-0.6c-1.2-0.4-2.1-1.1-2.7-1.9
		c-0.6-0.9-1-1.9-1.3-3s-0.3-2.5-0.3-4.1V23.4h-5.7v-4.3h5.7V7.2l7.5-0.6v12.5h7.7v4.3h-7.7v25.9c0,2.7,0.1,4.5,0.4,5.3
		c0.3,0.8,1,1.2,2.2,1.2C312.6,55.9,314.2,55.8,316.3,55.7z"/>
	<path class="st1" d="M344.6,18.2l-0.3,6.4c-1-0.1-1.9-0.2-2.7-0.2c-1.8,0-3.3,0.2-4.4,0.5c-1.1,0.4-2,1-2.5,1.8
		c-0.6,0.9-1,1.8-1.1,3c-0.2,1.1-0.3,2.6-0.3,4.4c0,1,0,2.6,0.1,4.6c0.1,2,0.1,3.4,0.1,4.3v18H326V19.1h6.8l0.8,4.7
		c0.8-1.8,2-3.2,3.6-4.3c1.6-1,3.5-1.5,5.7-1.5C343.5,18,344.1,18.1,344.6,18.2z"/>
	<path class="st1" d="M362.4,56.5c0,1.8-0.5,3.2-1.5,4.2s-2.3,1.5-3.7,1.5c-1.4,0-2.7-0.5-3.8-1.5c-1.1-1-1.6-2.4-1.6-4.1
		c0-1.8,0.5-3.2,1.5-4.1s2.3-1.5,3.7-1.5c1.5,0,2.8,0.5,3.8,1.5C361.9,53.4,362.4,54.8,362.4,56.5z"/>
	<path class="st1" d="M380.2,2.9v6.6h-7.5V2.9H380.2z M380.2,61h-7.5V19.1h7.5V61z"/>
	<path class="st1" d="M408.7,61.5c-2.8,0-5.2-0.1-7-0.3c-1.9-0.2-3.5-0.7-4.9-1.5s-2.4-1.6-3.1-2.5s-1.3-2.3-1.7-4.2
		c-0.4-1.9-0.7-3.8-0.7-5.6c-0.1-1.9-0.1-4.4-0.1-7.7c0-2.5,0-4.5,0.1-6.2c0.1-1.7,0.2-3.3,0.4-4.9c0.2-1.6,0.5-2.9,0.9-3.9
		c0.3-1,0.8-1.9,1.5-2.8c0.6-0.9,1.4-1.5,2.2-2c0.8-0.5,1.8-0.9,3.1-1.2s2.6-0.6,4.1-0.7s3.3-0.2,5.3-0.2s3.8,0.1,5.3,0.2
		c1.5,0.1,2.9,0.3,4.1,0.7s2.3,0.7,3.1,1.2c0.8,0.5,1.5,1.1,2.2,2c0.6,0.9,1.1,1.8,1.5,2.8c0.3,1,0.6,2.3,0.9,3.9
		c0.2,1.6,0.4,3.2,0.4,4.9c0.1,1.7,0.1,3.7,0.1,6.2c0,3.3,0,5.9-0.1,7.7c-0.1,1.9-0.3,3.7-0.7,5.6c-0.4,1.9-1,3.3-1.7,4.2
		c-0.7,0.9-1.8,1.7-3.1,2.5c-1.4,0.8-3,1.3-4.9,1.5C413.9,61.4,411.5,61.5,408.7,61.5z M408.8,56.3c3.6-0.1,6.1-0.3,7.5-0.8
		c1.4-0.5,2.1-1.4,2.1-2.7c0.3-3.6,0.4-7.8,0.4-12.6c0-1.6-0.1-3.8-0.2-6.8c-0.1-2.9-0.2-5.1-0.2-6.5c0-0.4-0.1-0.8-0.2-1.2
		c-0.1-0.4-0.4-0.7-0.7-0.9c-0.3-0.2-0.6-0.5-1-0.6c-0.3-0.2-0.8-0.3-1.3-0.4c-0.6-0.1-1.1-0.2-1.4-0.3c-0.4-0.1-1-0.1-1.7-0.2
		c-0.7,0-1.3,0-1.7,0s-1,0-1.7,0s-1.3,0-1.7,0s-1,0-1.7,0c-0.7,0-1.3,0.1-1.7,0.2c-0.4,0.1-0.9,0.2-1.4,0.3c-0.6,0.1-1,0.2-1.3,0.4
		c-0.3,0.2-0.6,0.4-1,0.6c-0.3,0.2-0.5,0.5-0.7,0.9c-0.1,0.4-0.2,0.8-0.2,1.2c0,1.4-0.1,3.6-0.2,6.5s-0.2,5.2-0.2,6.8
		c0,4.8,0.1,9,0.4,12.6c0,1.3,0.7,2.3,2.2,2.8C402.8,56,405.3,56.3,408.8,56.3z"/>
</g>
</svg>
