<?xml version="1.0" encoding="utf-8"?>
<!-- Generator: Adobe Illustrator 25.1.0, SVG Export Plug-In . SVG Version: 6.00 Build 0)  -->
<svg version="1.1" id="Layer_1" xmlns="http://www.w3.org/2000/svg" xmlns:xlink="http://www.w3.org/1999/xlink" x="0px" y="0px"
	 viewBox="0 0 448 75.2" style="enable-background:new 0 0 448 75.2;" xml:space="preserve">
<style type="text/css">
	.st0{fill:#6DC8F1;}
	.st1{fill-rule:evenodd;clip-rule:evenodd;fill:#6DC8F1;}
	.st2{fill-rule:evenodd;clip-rule:evenodd;fill:#FFFFFF;}
	.st3{enable-background:new    ;}
	.st4{fill:#FFFFFF;}
</style>
<path class="st0" d="M36.3,45c-0.2,2-0.4,3.4-0.5,4.1L0,45H36.3z"/>
<path class="st0" d="M38.6,54.4c0,1.4,0.2,2.8,0.4,4.1L0.4,54.4H38.6z"/>
<polygon class="st0" points="36.6,35.5 35.8,39.6 1.8,35.5 "/>
<path class="st0" d="M38.7,26.1c-0.7,1.7-1.1,3-1.4,3.9L5.7,26.1H38.7z"/>
<path class="st0" d="M40.9,63.9c0.6,1.4,1.5,2.6,2.6,3.6L9,63.9H40.9z"/>
<path class="st0" d="M48,16.6c-1.3,0.9-2.5,2-3.4,3.2L19,16.6H48z"/>
<path class="st0" d="M62.5,9C45.2,9,31,23.8,31,42.1s14.2,33.1,31.5,33.1S94,60.4,94,42.1S79.9,9,62.5,9z M62.5,69.7
	c-14.5,0-26.3-12.4-26.3-27.6c0-7.3,2.7-14.3,7.7-19.5c4.8-5.1,11.5-8.1,18.6-8.1c14.4,0,26.2,12.4,26.2,27.6l0,0
	C88.8,57.3,77.1,69.7,62.5,69.7L62.5,69.7z"/>
<path id="rect4015" class="st0" d="M60.1,4.4H65c0.7,0,1.2,0.6,1.2,1.2c0,0,0,0,0,0v4c0,0.7-0.5,1.2-1.2,1.3c0,0,0,0,0,0h-4.9
	c-0.7,0-1.2-0.6-1.2-1.2v-4C58.9,5,59.4,4.4,60.1,4.4C60.1,4.4,60.1,4.4,60.1,4.4z"/>
<path id="rect4017" class="st0" d="M60.1,0h5c1.7,0,3,1.5,3,3.2c0,0,0,0,0,0l0,0c0,1.7-1.3,3.1-3,3.2c0,0,0,0,0,0h-5
	c-1.7,0-3-1.5-3-3.2l0,0C57,1.5,58.4,0,60.1,0z"/>
<path id="rect3984" class="st0" d="M62.2,16.3h0.7c0.7,0,1.2,0.6,1.2,1.2v4c0,0.7-0.5,1.2-1.2,1.2h-0.7c-0.7,0-1.2-0.6-1.2-1.2v-4
	C61,16.9,61.5,16.3,62.2,16.3z"/>
<path id="rect3984-2" class="st0" d="M62.2,60.8h0.7c0.7,0,1.2,0.6,1.2,1.2v4c0,0.7-0.5,1.2-1.2,1.2h-0.7c-0.7,0-1.2-0.6-1.2-1.2v-4
	C61,61.3,61.5,60.8,62.2,60.8z"/>
<path id="rect3984-3" class="st0" d="M38,42.5v-0.8c0-0.7,0.5-1.2,1.2-1.2H43c0.7,0,1.2,0.6,1.2,1.2v0.8c0,0.7-0.5,1.2-1.2,1.2h-3.8
	C38.6,43.7,38,43.1,38,42.5z"/>
<path id="rect3984-4" class="st0" d="M79.7,42.5v-0.8c0-0.7,0.5-1.2,1.2-1.2h3.8c0.7,0,1.2,0.6,1.2,1.2v0.8c0,0.7-0.5,1.2-1.2,1.2
	h-3.8C80.2,43.7,79.6,43.1,79.7,42.5z"/>
<path id="rect3984-5" class="st0" d="M73.7,21.2l0.2,0.1c0.2,0.1,0.2,0.4,0,0.6l-0.8,1.5c-0.1,0.3-0.4,0.4-0.6,0.3l-0.2-0.1
	c-0.2-0.1-0.2-0.4,0-0.6l0.8-1.5C73.3,21.2,73.6,21.1,73.7,21.2z"/>
<path id="rect3984-6" class="st0" d="M81.8,29.9l0.1,0.2c0.1,0.2,0,0.4-0.3,0.6l-1.4,0.9c-0.2,0.2-0.4,0.2-0.6,0l-0.1-0.2
	c-0.1-0.2,0-0.4,0.3-0.6l1.4-0.9C81.4,29.8,81.7,29.8,81.8,29.9z"/>
<path id="rect3984-7" class="st0" d="M73.7,62.4l0.2-0.1c0.2-0.1,0.2-0.4,0-0.7l-0.8-1.5c-0.1-0.3-0.4-0.4-0.6-0.3L72.3,60
	c-0.2,0.1-0.2,0.4,0,0.7l0.8,1.5C73.3,62.4,73.6,62.5,73.7,62.4z"/>
<path id="rect3984-8" class="st0" d="M81.8,53.6l0.1-0.2c0.1-0.2,0-0.4-0.3-0.6L80.2,52c-0.2-0.2-0.4-0.2-0.6,0l-0.1,0.2
	c-0.1,0.2,0,0.4,0.3,0.6l1.4,0.9C81.4,53.8,81.7,53.8,81.8,53.6z"/>
<path id="rect3984-9" class="st0" d="M51.4,62.4l-0.2-0.1c-0.2-0.1-0.2-0.4,0-0.7l0.8-1.5c0.1-0.3,0.4-0.4,0.6-0.3l0.2,0.1
	c0.2,0.1,0.2,0.4,0,0.7l-0.8,1.5C51.8,62.4,51.5,62.5,51.4,62.4z"/>
<path id="rect3984-10" class="st0" d="M43.3,53.6l-0.1-0.2c-0.1-0.2,0-0.4,0.3-0.6l1.4-0.9c0.2-0.2,0.5-0.1,0.6,0l0.1,0.2
	c0.1,0.2-0.1,0.5-0.3,0.6l-1.4,0.9C43.7,53.8,43.4,53.8,43.3,53.6z"/>
<path id="rect3984-11" class="st0" d="M51.4,21.3l-0.2,0.1c-0.2,0.1-0.2,0.4,0,0.6l0.8,1.5c0.1,0.3,0.4,0.4,0.6,0.3l0.2-0.1
	c0.2-0.1,0.2-0.4,0-0.6l-0.8-1.5C51.8,21.3,51.5,21.2,51.4,21.3z"/>
<path id="rect3984-12" class="st0" d="M43.3,30.1l-0.1,0.2c-0.1,0.2,0,0.4,0.3,0.6l1.4,0.9c0.2,0.1,0.5,0.1,0.6,0l0.1-0.2
	c0.1-0.2,0-0.4-0.3-0.6L43.9,30C43.7,29.9,43.4,29.9,43.3,30.1z"/>
<path id="path4158" class="st1" d="M81,12l-1.1,4.5l4.2,3.4l4-2.5C88.1,15.2,82.7,11.4,81,12z"/>
<path id="path4782" class="st2" d="M80.9,26.3C80.6,25.9,58.1,45,58.1,45l0.9,1.1C59,46.1,81.3,26.8,80.9,26.3L80.9,26.3z"/>
<g class="st3">
	<path class="st0" d="M105.3,21.2c1.8-3.3,4.7-4.9,8.8-4.9c4.1,0,7,1.6,8.7,4.9c1.8,3.2,2.6,8.4,2.6,15.6c0,4.6-0.4,8.4-1.2,11.3
		c-0.8,2.9-2.1,5.3-3.8,7.2v0.3l5.9,0.7l-0.5,8.5h-0.9c-2.3,0-4.3-0.7-6.1-2.2l-5-4.1c-3.9,0-6.7-1.8-8.5-5.4
		c-1.8-3.6-2.7-9-2.7-16.1C102.6,29.7,103.5,24.5,105.3,21.2z M116.7,28.8c-0.5-1.4-1.4-2.1-2.8-2.1c-1.4,0-2.3,0.7-2.7,2.1
		c-0.4,1.4-0.6,4.1-0.6,8.1v1.6c0,4.2,0.2,7,0.7,8.4c0.5,1.3,1.4,2,2.8,2c1.4,0,2.3-0.6,2.7-1.9c0.4-1.3,0.6-3.9,0.6-7.9V37
		C117.4,32.9,117.2,30.2,116.7,28.8z"/>
	<path class="st0" d="M133.5,58.4c-3.7,0-5.5-2.9-5.5-8.7V26.3h7.9V47c0,1.1,0.3,1.6,1,1.6c0.9,0,1.6-0.3,2.2-0.9V26.3h7.8v31.3
		h-7.4v-2.3h-0.2C137.6,57.3,135.7,58.4,133.5,58.4z"/>
	<path class="st0" d="M150.5,24.1c-0.7-0.8-1-2.1-1-3.8c0-1.8,0.3-3,1-3.9c0.7-0.8,1.7-1.2,3.2-1.2c1.5,0,2.6,0.4,3.2,1.2
		c0.7,0.8,1,2.1,1,3.8c0,1.7-0.3,3-1,3.8c-0.7,0.8-1.7,1.2-3.2,1.2C152.2,25.3,151.2,24.9,150.5,24.1z M157.6,57.7h-7.7V26.6h7.7
		V57.7z"/>
	<path class="st0" d="M170.3,35.1c-0.9,0-1.5,0.6-1.8,1.7c-0.3,1.2-0.5,3-0.5,5.4c0,2.5,0.1,4.2,0.4,5.3c0.3,1.1,0.9,1.6,1.9,1.6
		c0.9,0,2.2-0.2,3.7-0.7l0.8,8.4c-2.1,1-4.1,1.5-5.7,1.5c-3,0-5.2-1.4-6.7-4.2c-1.5-2.8-2.3-6.7-2.3-11.8c0-5,0.8-9.1,2.3-12.2
		c1.6-3.1,3.8-4.7,6.8-4.7c2.2,0,4.2,0.5,6,1.6l-0.8,9.7C172.6,35.6,171.2,35.1,170.3,35.1z"/>
	<path class="st0" d="M195.9,57.7h-8.6l-2.8-12.1h-0.2v12.1h-7.6V15.6h7.7v23.2h0.2l3.4-12.5h8.2L191.4,42L195.9,57.7z"/>
</g>
<g class="st3">
	<path class="st4" d="M207.9,44.4h-2.1v13.3h-7.8V16.9h9.5c3.3,0,5.8,1.1,7.4,3.2c1.6,2.1,2.4,5.7,2.4,10.6c0,4.9-0.8,8.4-2.3,10.5
		C213.4,43.3,211,44.4,207.9,44.4z M208.7,35.5c0.3-0.7,0.4-2.1,0.4-4c0-1.9-0.2-3.3-0.5-4.1c-0.3-0.8-0.9-1.2-1.9-1.2h-1.1v10.4
		h1.3C207.9,36.6,208.5,36.3,208.7,35.5z"/>
	<path class="st4" d="M226.6,40.1v17.7h-7.7V26.3h6.8l0.5,1.9h0.2c0.7-1.1,1.4-1.9,2.2-2.2c0.7-0.3,1.9-0.5,3.6-0.5L231.7,36h-2.1
		c-1.2,0-2,0.3-2.4,0.8S226.6,38.4,226.6,40.1z"/>
	<path class="st4" d="M233.1,41.9c0-5.8,0.8-9.9,2.4-12.5c1.6-2.6,4-3.9,7.4-3.9c3.3,0,5.8,1.3,7.3,3.8c1.5,2.5,2.3,6.7,2.3,12.5
		s-0.7,10-2.2,12.6c-1.5,2.6-3.9,3.9-7.3,3.9c-3.4,0-5.9-1.3-7.4-3.9C233.9,51.8,233.1,47.6,233.1,41.9z M244.3,35.7
		c-0.2-0.9-0.7-1.3-1.5-1.3c-0.8,0-1.3,0.4-1.5,1.3c-0.2,0.9-0.3,2.7-0.3,5.5v1.6c0,3.1,0.1,5.1,0.3,6c0.2,0.9,0.7,1.4,1.5,1.4
		s1.3-0.5,1.5-1.4c0.2-0.9,0.3-2.8,0.3-5.6v-1.9C244.6,38.4,244.5,36.5,244.3,35.7z"/>
	<path class="st4" d="M274.6,58.1l-3.1,0.3c-2.4,0-3.9-1.1-4.4-3.3h-0.2c-1,2.2-2.6,3.3-4.7,3.3c-2.8,0-4.8-1.4-5.9-4.1
		s-1.7-6.9-1.7-12.3c0-5.5,0.6-9.6,1.9-12.3c1.3-2.8,3.1-4.1,5.5-4.1c1.6,0,2.9,0.5,3.8,1.6V15.6h7.8v32.4c0,0.8,0.1,1.4,0.4,1.7
		c0.2,0.3,0.7,0.4,1.4,0.4L274.6,58.1z M264,34.7c-0.7,0-1.1,0.6-1.3,1.7c-0.2,1.1-0.3,2.7-0.3,4.8c0,2.1,0,3.5,0,4.2
		c0,0.7,0.1,1.5,0.2,2.3c0.1,0.8,0.3,1.3,0.5,1.6c0.2,0.3,0.6,0.4,1.2,0.4c0.5,0,1.1-0.2,1.7-0.6V35.5C265.3,35,264.7,34.7,264,34.7
		z"/>
	<path class="st4" d="M282.6,58.4c-3.7,0-5.5-2.9-5.5-8.7V26.3h7.9V47c0,1.1,0.3,1.6,1,1.6c0.9,0,1.6-0.3,2.2-0.9V26.3h7.8v31.3
		h-7.4v-2.3h-0.2C286.7,57.3,284.8,58.4,282.6,58.4z"/>
	<path class="st4" d="M308.6,35.1c-0.9,0-1.5,0.6-1.8,1.7c-0.3,1.2-0.5,3-0.5,5.4c0,2.5,0.1,4.2,0.4,5.3c0.3,1.1,0.9,1.6,1.9,1.6
		s2.2-0.2,3.7-0.7l0.8,8.4c-2.1,1-4.1,1.5-5.7,1.5c-3,0-5.2-1.4-6.7-4.2c-1.5-2.8-2.3-6.7-2.3-11.8c0-5,0.8-9.1,2.3-12.2
		c1.6-3.1,3.8-4.7,6.8-4.7c2.2,0,4.2,0.5,6,1.6l-0.8,9.7C310.9,35.6,309.5,35.1,308.6,35.1z"/>
	<path class="st4" d="M327.5,57.8c-2.3,0.4-4.3,0.6-6,0.6s-3-0.6-4-1.9s-1.4-3.4-1.4-6.5V34.8h-2.2v-8.1h2.6l0.4-6h7v6h4.1l-0.3,8.1
		h-3.9v13.1c0,0.9,0.3,1.4,0.9,1.4c0.1,0,1-0.1,2.9-0.2L327.5,57.8z"/>
</g>
<g class="st3">
	<path class="st0" d="M338.7,57.7h-7.9V16.9h7.9V57.7z"/>
	<path class="st0" d="M361.6,28.6c1.7-2.1,3.6-3.1,5.6-3.1c2.1,0,3.5,0.7,4.3,2c0.8,1.3,1.2,3.3,1.2,6v24.2h-7.9V37.2
		c0-1.1-0.3-1.6-1-1.6c-0.9,0-1.6,0.3-2.2,0.9v21.2h-7.9V37.2c0-1.1-0.3-1.6-1-1.6c-0.9,0-1.6,0.3-2.2,0.9v21.2h-7.8V26.3h7.1
		l0.5,2.3h0.2c1.7-2.1,3.7-3.1,6.1-3.1c2.3,0,3.9,1.2,4.6,3.7L361.6,28.6z"/>
	<path class="st0" d="M383.4,57v9.7h-7.8V26.3h6.4l0.5,2h0.2c0.9-1.8,2.6-2.7,5.1-2.7s4.3,1.2,5.4,3.7c1,2.5,1.6,6.6,1.6,12.3
		c0,5.7-0.6,9.9-1.7,12.7c-1.1,2.8-3.1,4.2-6.1,4.2c-1.4,0-2.5-0.5-3.4-1.4H383.4z M386.7,47.8c0.1-0.8,0.2-1.5,0.2-2.3
		c0-0.7,0-2.2,0-4.2c0-2.1-0.1-3.7-0.3-4.8c-0.2-1.1-0.7-1.7-1.3-1.7s-1.3,0.3-2,0.8v13.6c0.6,0.4,1.2,0.6,1.7,0.6
		c0.5,0,0.9-0.1,1.2-0.4C386.4,49.1,386.6,48.6,386.7,47.8z"/>
	<path class="st0" d="M396.9,41.9c0-5.8,0.8-9.9,2.4-12.5c1.6-2.6,4-3.9,7.4-3.9s5.8,1.3,7.3,3.8c1.5,2.5,2.3,6.7,2.3,12.5
		s-0.7,10-2.2,12.6c-1.5,2.6-3.9,3.9-7.3,3.9c-3.4,0-5.9-1.3-7.4-3.9C397.7,51.8,396.9,47.6,396.9,41.9z M408.1,35.7
		c-0.2-0.9-0.7-1.3-1.5-1.3c-0.8,0-1.3,0.4-1.5,1.3c-0.2,0.9-0.3,2.7-0.3,5.5v1.6c0,3.1,0.1,5.1,0.3,6c0.2,0.9,0.7,1.4,1.5,1.4
		s1.3-0.5,1.5-1.4c0.2-0.9,0.3-2.8,0.3-5.6v-1.9C408.4,38.4,408.3,36.5,408.1,35.7z"/>
	<path class="st0" d="M426.4,40.1v17.7h-7.7V26.3h6.8l0.5,1.9h0.2c0.7-1.1,1.4-1.9,2.2-2.2c0.7-0.3,1.9-0.5,3.6-0.5L431.5,36h-2.1
		c-1.2,0-2,0.3-2.4,0.8C426.6,37.3,426.4,38.4,426.4,40.1z"/>
	<path class="st0" d="M445.8,57.8c-2.3,0.4-4.3,0.6-6,0.6c-1.7,0-3-0.6-4-1.9c-0.9-1.2-1.4-3.4-1.4-6.5V34.8h-2.2v-8.1h2.6l0.4-6h7
		v6h4.2l-0.3,8.1h-3.9v13.1c0,0.9,0.3,1.4,0.9,1.4c0.1,0,1-0.1,2.9-0.2L445.8,57.8z"/>
</g>
</svg>
