<?xml version="1.0" encoding="utf-8"?>
<!-- Generator: Adobe Illustrator 25.1.0, SVG Export Plug-In . SVG Version: 6.00 Build 0)  -->
<svg version="1.1" id="Layer_1" xmlns="http://www.w3.org/2000/svg" xmlns:xlink="http://www.w3.org/1999/xlink" x="0px" y="0px"
	 viewBox="0 0 458 70.8" style="enable-background:new 0 0 458 70.8;" xml:space="preserve">
<style type="text/css">
	.st0{fill:#FFFFFF;}
	.st1{fill:#D4D4D4;}
</style>
<g>
	<g>
		<path class="st0" d="M68.7,61.2c-2.1,0-4.3-0.2-6.4-0.5c-2.1-0.3-4.1-0.7-5.9-1.2c-1.8-0.5-3.3-1-4.5-1.6l1-7.4
			c1.3,0.6,2.9,1.3,4.8,2c1.9,0.7,3.9,1.3,6.1,1.7c2.2,0.5,4.4,0.7,6.6,0.7c3.3,0,5.9-0.6,7.9-1.8c2-1.2,2.9-3.1,2.9-5.7
			c0-1.9-0.5-3.5-1.5-4.8c-1-1.2-2.5-2.3-4.4-3.2c-2-0.9-4.4-1.8-7.4-2.6c-2.8-0.8-5.4-1.8-7.8-3c-2.4-1.1-4.3-2.7-5.7-4.6
			c-1.4-1.9-2.2-4.5-2.2-7.7c0-2.7,0.7-5.1,2.1-7.2c1.4-2.1,3.5-3.7,6.2-4.9c2.7-1.2,6.1-1.8,10.1-1.8c3.4,0,6.5,0.4,9.3,1.1
			s5.2,1.5,7,2.4l-0.7,7.4c-2.8-1.7-5.5-2.9-8-3.6C75.6,14.3,73,14,70.2,14c-3,0-5.5,0.6-7.5,1.7c-2,1.1-3,3-3,5.5
			c0,1.7,0.4,3.1,1.3,4.2c0.9,1.1,2.2,2,3.9,2.8c1.7,0.8,3.9,1.6,6.5,2.3c3.6,1.1,6.7,2.3,9.2,3.7c2.6,1.4,4.5,3.1,5.9,5.1
			c1.4,2,2.1,4.5,2.1,7.5c0,2.2-0.4,4.2-1.3,6s-2.1,3.3-3.8,4.5c-1.7,1.3-3.8,2.2-6.3,2.9C75,60.9,72.1,61.2,68.7,61.2z"/>
		<path class="st0" d="M106.9,60.9c-2.3,0-4.1-0.4-5.5-1.2c-1.4-0.8-2.4-1.9-3-3.2c-0.6-1.3-0.9-2.7-0.9-4.1v-23h-6.2l0.6-5.2h5.6
			v-8.9l6.6-0.7v9.6h9.5v5.2h-9.5v19c0,2.3,0.1,4,0.4,5c0.3,1,0.9,1.7,2,2c1.1,0.3,2.8,0.4,5.2,0.4h1.7l-0.5,5.3H106.9z"/>
		<path class="st0" d="M118.4,60.2v-7.8h7.9v7.8H118.4z"/>
		<path class="st0" d="M135.9,60.2V8.7h7v45.2h23.6v6.3H135.9z"/>
		<path class="st0" d="M183.9,60.9c-2.8,0-5.2-0.6-7.2-1.7s-3.5-2.9-4.5-5.2s-1.6-5.3-1.6-8.9v-21h6.6v19.1c0,3.8,0.7,6.7,2,8.8
			c1.3,2,3.5,3,6.4,3c2,0,3.9-0.5,5.7-1.5c1.7-1,2.9-2.6,3.6-4.7l-1,3.6V24.1h6.6v36.1h-5.9l-1.3-7.1l1.8,1.2
			c-1.2,2.2-2.7,3.9-4.4,5C188.9,60.4,186.6,60.9,183.9,60.9z"/>
		<path class="st0" d="M209.4,60.2V5h6.6v35.4l13.2-16.3h8.1L223,40.9l14.7,19.3h-8.1L216,41.8v18.3H209.4z"/>
		<path class="st0" d="M258.1,60.9c-4.2,0-7.8-0.9-10.7-2.6s-5.1-4.1-6.6-6.9c-1.5-2.9-2.2-6.1-2.2-9.5c0-3.4,0.7-6.4,2.1-9.2
			c1.4-2.8,3.4-5,6-6.7c2.6-1.7,5.8-2.5,9.5-2.5c3,0,5.7,0.6,8,1.8c2.3,1.2,4.2,2.9,5.5,5.2c1.3,2.3,2,5,2,8.3c0,0.5,0,1.1-0.1,1.7
			c0,0.6-0.1,1.2-0.2,1.9h-26.1c0.3,3.3,1.1,5.9,2.4,7.8c1.3,1.9,2.9,3.2,4.8,3.9c1.9,0.8,4,1.1,6.3,1.1c1.7,0,3.4-0.2,5.2-0.5
			c1.8-0.3,3.5-0.9,5.2-1.6l0.9,5.2c-1.4,0.6-3.1,1.2-5.1,1.9C263,60.6,260.7,60.9,258.1,60.9z M246,37.6h19c0-1.7-0.3-3.2-1-4.4
			c-0.6-1.3-1.6-2.2-2.9-2.9c-1.3-0.7-3-1-5-1c-2.9,0-5.2,0.7-6.8,2.2C247.7,32.9,246.6,34.9,246,37.6z"/>
	</g>
</g>
<g>
	<g>
		<path class="st1" d="M284.3,11.2c1.2-0.3,3.1-0.4,5.1-0.4c2.8,0,4.5,0.5,5.9,1.6c1.1,0.8,1.8,2.1,1.8,3.8c0,2.1-1.4,3.9-3.6,4.7
			v0.1c2,0.5,4.4,2.2,4.4,5.4c0,1.8-0.7,3.2-1.8,4.3c-1.5,1.4-3.9,2-7.4,2c-1.9,0-3.4-0.1-4.3-0.3V11.2z M287.1,20h2.5
			c2.9,0,4.6-1.5,4.6-3.6c0-2.5-1.9-3.5-4.7-3.5c-1.3,0-2,0.1-2.4,0.2V20z M287.1,30.2c0.5,0.1,1.3,0.1,2.3,0.1c2.9,0,5.5-1,5.5-4.2
			c0-2.9-2.5-4.1-5.5-4.1h-2.3V30.2z"/>
		<path class="st1" d="M314.3,28.1c0,1.6,0,3,0.1,4.2H312l-0.2-2.5h-0.1c-0.7,1.2-2.4,2.9-5.1,2.9c-2.4,0-5.3-1.3-5.3-6.7v-9h2.8
			v8.5c0,2.9,0.9,4.9,3.4,4.9c1.9,0,3.2-1.3,3.7-2.5c0.2-0.4,0.3-0.9,0.3-1.4v-9.4h2.8V28.1z"/>
		<path class="st1" d="M318.6,29.5c0.8,0.5,2.3,1.1,3.7,1.1c2,0,3-1,3-2.3c0-1.3-0.8-2.1-2.9-2.8c-2.8-1-4.1-2.5-4.1-4.4
			c0-2.5,2-4.5,5.3-4.5c1.6,0,2.9,0.4,3.8,1l-0.7,2c-0.6-0.4-1.7-0.9-3.1-0.9c-1.7,0-2.6,1-2.6,2.1c0,1.3,0.9,1.8,2.9,2.6
			c2.7,1,4,2.4,4,4.6c0,2.7-2.1,4.6-5.8,4.6c-1.7,0-3.2-0.4-4.3-1L318.6,29.5z"/>
		<path class="st1" d="M334.7,12.6c0,1-0.7,1.7-1.8,1.7c-1,0-1.7-0.8-1.7-1.7c0-1,0.7-1.7,1.7-1.7C334,10.9,334.7,11.6,334.7,12.6z
			 M331.6,32.3V16.9h2.8v15.4H331.6z"/>
		<path class="st1" d="M339,21.1c0-1.6,0-2.9-0.1-4.2h2.5l0.2,2.5h0.1c0.8-1.5,2.5-2.9,5.1-2.9c2.1,0,5.4,1.3,5.4,6.5v9.2h-2.8v-8.9
			c0-2.5-0.9-4.5-3.6-4.5c-1.8,0-3.3,1.3-3.8,2.9c-0.1,0.3-0.2,0.8-0.2,1.3v9.2H339V21.1z"/>
		<path class="st1" d="M358.2,25.1c0.1,3.8,2.5,5.3,5.3,5.3c2,0,3.2-0.3,4.3-0.8l0.5,2c-1,0.4-2.7,1-5.1,1c-4.7,0-7.6-3.1-7.6-7.8
			s2.7-8.3,7.2-8.3c5,0,6.4,4.4,6.4,7.2c0,0.6-0.1,1-0.1,1.3H358.2z M366.4,23.1c0-1.8-0.7-4.5-3.9-4.5c-2.8,0-4.1,2.6-4.3,4.5
			H366.4z"/>
		<path class="st1" d="M372.2,29.5c0.8,0.5,2.3,1.1,3.7,1.1c2,0,3-1,3-2.3c0-1.3-0.8-2.1-2.9-2.8c-2.8-1-4.1-2.5-4.1-4.4
			c0-2.5,2-4.5,5.3-4.5c1.6,0,2.9,0.4,3.8,1l-0.7,2c-0.6-0.4-1.7-0.9-3.1-0.9c-1.7,0-2.6,1-2.6,2.1c0,1.3,0.9,1.8,2.9,2.6
			c2.7,1,4,2.4,4,4.6c0,2.7-2.1,4.6-5.8,4.6c-1.7,0-3.2-0.4-4.3-1L372.2,29.5z"/>
		<path class="st1" d="M384.8,29.5c0.8,0.5,2.3,1.1,3.7,1.1c2,0,3-1,3-2.3c0-1.3-0.8-2.1-2.9-2.8c-2.8-1-4.1-2.5-4.1-4.4
			c0-2.5,2-4.5,5.3-4.5c1.6,0,2.9,0.4,3.8,1l-0.7,2c-0.6-0.4-1.7-0.9-3.1-0.9c-1.7,0-2.6,1-2.6,2.1c0,1.3,0.9,1.8,2.9,2.6
			c2.7,1,4,2.4,4,4.6c0,2.7-2.1,4.6-5.8,4.6c-1.7,0-3.2-0.4-4.3-1L384.8,29.5z"/>
	</g>
	<g>
		<path class="st1" d="M284.3,40.1c1.7-0.3,3.7-0.4,5.9-0.4c4,0,6.8,0.9,8.7,2.7c1.9,1.7,3,4.2,3,7.7c0,3.5-1.1,6.4-3.1,8.3
			c-2,2-5.3,3.1-9.5,3.1c-2,0-3.6-0.1-5-0.3V40.1z M287.1,59c0.7,0.1,1.7,0.2,2.8,0.2c5.9,0,9.1-3.3,9.1-9.1c0-5.1-2.8-8.3-8.7-8.3
			c-1.4,0-2.5,0.1-3.2,0.3V59z"/>
		<path class="st1" d="M308.5,41.5c0,1-0.7,1.7-1.8,1.7c-1,0-1.7-0.8-1.7-1.7c0-1,0.7-1.7,1.7-1.7C307.8,39.7,308.5,40.5,308.5,41.5
			z M305.4,61.2V45.8h2.8v15.4H305.4z"/>
		<path class="st1" d="M312.8,50.6c0-1.8,0-3.4-0.1-4.8h2.4l0.1,3h0.1c0.7-2.1,2.4-3.4,4.3-3.4c0.3,0,0.5,0,0.8,0.1v2.6
			c-0.3-0.1-0.6-0.1-1-0.1c-2,0-3.4,1.5-3.8,3.6c-0.1,0.4-0.1,0.8-0.1,1.3v8.2h-2.8V50.6z"/>
		<path class="st1" d="M324.5,54c0.1,3.8,2.5,5.3,5.3,5.3c2,0,3.2-0.3,4.3-0.8l0.5,2c-1,0.4-2.7,1-5.1,1c-4.7,0-7.6-3.1-7.6-7.8
			s2.7-8.3,7.2-8.3c5,0,6.4,4.4,6.4,7.2c0,0.6-0.1,1-0.1,1.3H324.5z M332.7,52c0-1.8-0.7-4.5-3.9-4.5c-2.8,0-4.1,2.6-4.3,4.5H332.7z
			"/>
		<path class="st1" d="M349.8,60.6c-0.7,0.4-2.4,0.9-4.4,0.9c-4.6,0-7.7-3.1-7.7-7.9c0-4.7,3.2-8.2,8.3-8.2c1.7,0,3.1,0.4,3.9,0.8
			l-0.6,2.2c-0.7-0.4-1.7-0.7-3.2-0.7c-3.5,0-5.4,2.6-5.4,5.8c0,3.6,2.3,5.8,5.3,5.8c1.6,0,2.6-0.4,3.4-0.8L349.8,60.6z"/>
		<path class="st1" d="M356.9,41.4v4.4h4v2.1h-4v8.3c0,1.9,0.5,3,2.1,3c0.7,0,1.3-0.1,1.6-0.2l0.1,2.1c-0.5,0.2-1.4,0.4-2.5,0.4
			c-1.3,0-2.4-0.4-3-1.2c-0.8-0.8-1.1-2.2-1.1-4v-8.4h-2.4v-2.1h2.4v-3.7L356.9,41.4z"/>
		<path class="st1" d="M377.7,53.4c0,5.7-3.9,8.2-7.7,8.2c-4.2,0-7.4-3.1-7.4-7.9c0-5.1,3.4-8.2,7.6-8.2
			C374.7,45.5,377.7,48.7,377.7,53.4z M365.5,53.5c0,3.4,1.9,5.9,4.7,5.9c2.7,0,4.7-2.5,4.7-6c0-2.6-1.3-5.9-4.6-5.9
			S365.5,50.6,365.5,53.5z"/>
		<path class="st1" d="M381.3,50.6c0-1.8,0-3.4-0.1-4.8h2.4l0.1,3h0.1c0.7-2.1,2.4-3.4,4.3-3.4c0.3,0,0.5,0,0.8,0.1v2.6
			c-0.3-0.1-0.6-0.1-1-0.1c-2,0-3.4,1.5-3.8,3.6c-0.1,0.4-0.1,0.8-0.1,1.3v8.2h-2.8V50.6z"/>
		<path class="st1" d="M393.5,45.8l3.4,9.1c0.3,1,0.7,2.2,1,3.1h0.1c0.3-0.9,0.6-2.1,1-3.2l3.1-9h3l-4.2,11c-2,5.3-3.4,8-5.3,9.6
			c-1.4,1.2-2.7,1.7-3.4,1.8l-0.7-2.4c0.7-0.2,1.6-0.7,2.4-1.4c0.8-0.6,1.7-1.7,2.4-3.1c0.1-0.3,0.2-0.5,0.2-0.7s-0.1-0.4-0.2-0.7
			l-5.7-14.2H393.5z"/>
	</g>
</g>
</svg>
